<svg xmlns="http://www.w3.org/2000/svg" fill="none" viewBox="0 0 28 28">
  <g clip-path="url(#pNkwRA_2L3a)" filter="url(#pNkwRA_2L3b)">
    <path d="M14.416.023C15.92 0 17.419.013 18.914 0c.09 1.761.724 3.555 2.013 4.8 1.286 1.276 3.106 1.86 4.876 2.058v4.632c-1.659-.054-3.326-.4-4.831-1.114-.656-.297-1.267-.679-1.865-1.07-.008 3.362.014 6.72-.021 10.067-.09 1.608-.62 3.209-1.556 4.534-1.505 2.206-4.117 3.644-6.8 3.69-1.645.093-3.288-.355-4.69-1.182-2.324-1.37-3.959-3.878-4.197-6.57-.03-.57-.035-1.142-.014-1.712a8.624 8.624 0 012.97-5.708c1.906-1.659 4.575-2.45 7.073-1.982.024 1.705-.044 3.407-.044 5.111-1.142-.37-2.476-.266-3.473.427a3.984 3.984 0 00-1.57 2.013c-.238.583-.17 1.231-.156 1.85.274 1.889 2.089 3.475 4.027 3.304 1.284-.014 2.516-.76 3.185-1.851.217-.382.46-.773.472-1.223.113-2.058.068-4.107.082-6.165.01-4.637-.014-9.262.022-13.885h-.001z" fill="#003566"/>
  </g>
  <defs>
    <clipPath id="pNkwRA_2L3a">
      <path fill="#fff" d="M0 0h27.61v27.61H0z"/>
    </clipPath>
    <filter id="pNkwRA_2L3b" x="0" y="0" width="27.61" height="31.61" filterUnits="userSpaceOnUse" color-interpolation-filters="sRGB">
      <feFlood flood-opacity="0" result="BackgroundImageFix"/>
      <feBlend in="SourceGraphic" in2="BackgroundImageFix" result="shape"/>
      <feColorMatrix in="SourceAlpha" values="0 0 0 0 0 0 0 0 0 0 0 0 0 0 0 0 0 0 127 0" result="hardAlpha"/>
      <feOffset dy="4"/>
      <feGaussianBlur stdDeviation="7.5"/>
      <feComposite in2="hardAlpha" operator="arithmetic" k2="-1" k3="1"/>
      <feColorMatrix values="0 0 0 0 0 0 0 0 0 0 0 0 0 0 0 0 0 0 0.2 0"/>
      <feBlend in2="shape" result="effect1_innerShadow_102_23"/>
    </filter>
  </defs>
</svg>
